<svg data-v-fde0c5aa="" xmlns="http://www.w3.org/2000/svg" viewBox="0 0 300 300" class="iconLeft"><!----><defs data-v-fde0c5aa=""><!----></defs><rect data-v-fde0c5aa="" fill="transparent" x="0" y="0" width="300px" height="300px" class="logo-background-square"></rect><defs data-v-fde0c5aa=""><!----></defs><g data-v-fde0c5aa="" id="7fad4ccd-a398-46cb-b627-6996e84b5a28" fill="#000000" transform="matrix(2.441271884983512,0,0,2.441271884983512,99.7304962981914,128.22385518173738)"><path d="M8.22 14.06L8.97 14L8.97 5.08L10.09 4.83L10.09 4.20L7.04 4.20L7.04 4.83L7.94 5.08L7.94 9.76C7.94 10.43 8.02 11.12 8.02 11.12L7.94 11.13C7.94 11.13 7.57 10.51 7.11 9.93L2.81 4.14L1.05 4.20L1.05 4.72L1.69 5.60L1.69 13.15L0.57 13.37L0.57 14L3.85 14L3.85 13.37L2.73 13.15L2.73 8.29C2.73 7.57 2.69 6.93 2.69 6.93L2.77 6.92C2.77 6.92 3.09 7.48 3.57 8.06ZM13.82 14.14C14.85 14.14 15.61 13.76 16.00 13.37C16.17 13.80 16.56 14.14 17.43 14.14C17.89 14.14 18.33 13.90 18.33 13.90L18.33 13.24L18.12 13.24C17.70 13.24 17.60 13.10 17.60 12.64L17.60 8.61L17.65 7.11L17.15 6.93L15.05 7.14L15.05 7.77L15.74 7.87L15.74 11.21C15.74 11.90 15.79 12.63 15.79 12.63C15.79 12.63 15.36 12.91 14.62 12.91C13.73 12.91 13.30 12.38 13.30 11.56L13.30 8.61L13.36 7.11L12.85 6.93L10.75 7.14L10.75 7.77L11.44 7.88L11.44 11.63C11.44 13.22 12.39 14.14 13.82 14.14ZM22.19 14.14C23.28 14.14 24.02 13.66 24.02 13.66L24.02 12.81C24.02 12.81 23.44 12.99 23.00 12.99C22.27 12.99 21.97 12.61 21.97 11.73L21.97 7.94L24.01 8.02L24.01 7L21.97 7L21.98 5.38L21.35 5.38L20.10 7L19.21 7.13L19.21 7.88L20.17 7.90C20.17 7.90 20.12 8.41 20.12 9.03L20.12 11.94C20.12 13.36 20.78 14.14 22.19 14.14ZM24.93 14L28.76 14L28.76 13.37L27.69 13.26L27.69 9.94C27.69 9.18 27.64 8.54 27.64 8.54C27.64 8.54 28.03 8.30 28.59 8.30C29.23 8.30 29.60 8.61 30.14 8.82L30.79 7.46C30.03 7.20 29.79 6.86 29.15 6.86C28.64 6.86 28.17 7.13 27.64 7.87L27.69 7.18L27.33 6.93L24.92 7.13L24.92 7.76L25.80 7.87L25.83 13.24L24.93 13.37ZM31.39 14L35.04 14L35.04 13.37L34.15 13.20L34.15 7.18L33.81 6.93L31.37 7.13L31.37 7.76L32.28 7.87L32.28 13.20L31.39 13.37ZM33.17 5.71C33.84 5.71 34.27 5.32 34.27 4.63C34.27 4.02 33.89 3.64 33.26 3.64C32.63 3.64 32.14 4.02 32.14 4.68C32.14 5.31 32.58 5.71 33.17 5.71ZM38.84 14.20C40.96 14.20 42.42 13.15 42.42 11.34C42.42 9.81 41.52 9.13 39.87 8.25C38.84 7.70 38.12 7.34 38.12 6.27C38.12 5.46 38.91 4.93 39.90 4.93C40.42 4.93 40.74 5.01 40.98 5.11L41.19 6.94L41.96 6.94L42.07 4.58C42.07 4.58 41.33 4.00 39.62 4.00C37.70 4.00 36.36 5.03 36.36 6.65C36.36 8.18 37.31 8.93 38.68 9.55C39.80 10.05 40.66 10.53 40.66 11.61C40.66 12.54 40.10 13.27 38.63 13.27C38.11 13.27 37.67 13.19 37.35 13.10L37.10 11.16L36.33 11.16L36.34 13.64C36.34 13.64 37.24 14.20 38.84 14.20ZM47.19 14.14C48.64 14.14 49.20 13.57 49.20 13.57L49.20 12.80C49.20 12.80 48.68 12.96 47.92 12.96C46.20 12.96 45.57 11.90 45.57 10.39C45.57 8.71 46.12 7.97 47.03 7.97C47.81 7.97 48.20 8.37 48.97 8.57L49.25 7.07C48.61 7 48.08 6.86 47.22 6.86C45.18 6.86 43.68 8.23 43.68 10.63C43.68 12.67 44.93 14.14 47.19 14.14ZM55.66 14.14C56.14 14.14 56.57 13.90 56.57 13.90L56.57 13.26L56.55 13.26C56.08 13.26 55.85 13.13 55.85 12.66L55.85 9.27C55.85 7.94 55.20 6.86 53.17 6.86C51.86 6.86 50.76 7.31 50.76 7.31L50.76 8.13C50.76 8.13 51.69 7.91 52.33 7.91C53.59 7.91 54.01 8.40 54.01 9.37L54.01 10.12C53.61 10.12 53.10 10.14 52.57 10.21C50.92 10.40 50.12 11.20 50.12 12.42C50.12 13.37 50.76 14.17 52.16 14.17C52.98 14.17 53.63 13.80 54.22 13.31C54.39 13.76 54.75 14.14 55.66 14.14ZM52.95 12.92C52.30 12.92 51.95 12.59 51.95 12.08C51.95 11.47 52.35 11.10 52.91 10.99C53.58 10.86 53.98 10.96 53.98 10.96L53.98 11.41C53.98 12.22 54.03 12.61 54.03 12.61C54.03 12.61 53.70 12.92 52.95 12.92ZM57.58 14L60.98 14L60.98 13.37L60.34 13.26L60.34 9.90C60.34 9.14 60.28 8.57 60.28 8.57C60.28 8.57 61.04 8.09 61.74 8.09C62.58 8.09 62.89 8.64 62.89 9.53L62.89 13.26L62.24 13.37L62.24 14L65.65 14L65.65 13.37L64.75 13.26L64.75 9.38C64.75 7.55 63.83 6.86 62.61 6.86C61.92 6.86 61.00 7.03 60.31 7.63L60.34 7.18L59.98 6.93L57.57 7.14L57.57 7.77L58.48 7.87L58.48 13.26L57.58 13.37Z"></path></g><defs data-v-fde0c5aa=""><linearGradient data-v-fde0c5aa="" gradientTransform="rotate(25)" id="60c4b9f6-cfaf-40dc-b3e9-19f0f7b82406" x1="0%" y1="0%" x2="100%" y2="0%"><stop data-v-fde0c5aa="" offset="0%" stop-color="#51A4FB" stop-opacity="1"></stop><stop data-v-fde0c5aa="" offset="100%" stop-color="#51A4FB" stop-opacity="1"></stop></linearGradient></defs><g data-v-fde0c5aa="" id="9abf3a75-aef2-4792-8c6c-f61c133504e0" stroke="none" fill="url(#60c4b9f6-cfaf-40dc-b3e9-19f0f7b82406)" transform="matrix(0.517371481678278,0,0,0.517371481678278,38.18131805697042,124.59143228741868)"><path d="M36.543 11.74a7.948 7.948 0 0 0-1.143.07c-3.062.412-5.517 2.554-7.002 5.416-1.484 2.863-2.09 6.5-1.576 10.33.515 3.83 2.059 7.178 4.246 9.547 2.188 2.37 5.121 3.789 8.184 3.377s5.517-2.553 7.002-5.416c1.485-2.863 2.09-6.5 1.576-10.33-.514-3.83-2.058-7.18-4.246-9.549-1.914-2.073-4.398-3.417-7.041-3.445zm26.955 0c-2.643.028-5.127 1.374-7.041 3.447-2.188 2.37-3.732 5.717-4.246 9.547-.515 3.83.091 7.467 1.576 10.33 1.485 2.863 3.94 5.005 7.002 5.416s5.996-1.005 8.184-3.375c2.187-2.37 3.731-5.719 4.246-9.549.514-3.83-.092-7.467-1.576-10.33-1.485-2.862-3.94-5.004-7.002-5.416a7.948 7.948 0 0 0-1.143-.07zm-26.977 2.998c1.683.016 3.371.872 4.86 2.484 1.7 1.843 3.037 4.646 3.476 7.912.439 3.266-.111 6.323-1.266 8.55-1.154 2.225-2.82 3.564-4.738 3.822-1.918.257-3.881-.594-5.582-2.436-1.7-1.842-3.038-4.646-3.477-7.912-.438-3.266.112-6.325 1.266-8.55 1.154-2.227 2.823-3.567 4.74-3.825.24-.032.48-.047.721-.045zm26.998.002c.24-.002.481.01.72.043 1.918.258 3.585 1.598 4.739 3.824s1.706 5.283 1.268 8.549-1.778 6.07-3.479 7.912c-1.7 1.842-3.662 2.697-5.58 2.44-1.918-.258-3.584-1.599-4.738-3.825-1.155-2.225-1.705-5.284-1.266-8.55.439-3.266 1.776-6.07 3.477-7.913 1.488-1.612 3.176-2.464 4.86-2.48zM11.781 31.174c-1.512.057-2.974.474-4.268 1.318-2.587 1.69-3.882 4.68-3.99 7.903-.108 3.223.911 6.768 3.024 10.004 2.112 3.235 4.947 5.593 7.941 6.79 2.994 1.198 6.253 1.215 8.84-.474 2.587-1.69 3.882-4.68 3.99-7.902.108-3.223-.91-6.767-3.023-10.002-2.113-3.236-4.95-5.594-7.944-6.791-1.497-.599-3.058-.903-4.57-.846zm76.479 0c-1.512-.058-3.075.245-4.572.844-2.995 1.197-5.83 3.557-7.942 6.793s-3.131 6.779-3.023 10.002c.108 3.223 1.403 6.213 3.99 7.902 2.587 1.69 5.848 1.672 8.842.475 2.994-1.198 5.827-3.556 7.94-6.791 2.112-3.236 3.133-6.78 3.025-10.002-.108-3.223-1.405-6.213-3.992-7.903-1.294-.844-2.756-1.262-4.268-1.32zm-76.328 2.984c1.028-.034 2.145.181 3.309.647 2.328.93 4.741 2.887 6.543 5.646s2.62 5.756 2.537 8.262c-.084 2.506-1.013 4.432-2.633 5.49-1.62 1.058-3.758 1.132-6.086.201-2.328-.93-4.741-2.885-6.543-5.644-1.802-2.76-2.621-5.756-2.537-8.262.084-2.506 1.013-4.436 2.633-5.494.81-.529 1.75-.812 2.777-.846zm76.178.002c1.028.035 1.967.317 2.777.846 1.62 1.058 2.549 2.984 2.633 5.49.084 2.506-.735 5.503-2.537 8.262-1.802 2.76-4.217 4.715-6.545 5.646-2.328.931-4.464.857-6.084-.2-1.62-1.059-2.547-2.985-2.63-5.491s.733-5.502 2.534-8.262c1.802-2.759 4.217-4.715 6.545-5.646 1.164-.466 2.28-.68 3.307-.645zm-38.09 6.85c-16.632 0-29.883 15.799-29.883 34.973 0 4.793.737 7.79 2.805 9.412 1.034.81 2.313 1.109 3.568 1.086 1.255-.023 2.535-.325 3.89-.752 5.423-1.71 12.283-5.479 19.62-5.479s14.199 3.77 19.62 5.479c1.356.427 2.637.73 3.891.752 1.255.023 2.535-.275 3.569-1.086 2.068-1.621 2.804-4.619 2.804-9.412 0-19.174-13.252-34.973-29.885-34.973zm0 3c14.72 0 26.885 14.174 26.885 31.973 0 4.45-.85 6.42-1.654 7.05-.403.316-.88.464-1.666.45-.786-.014-1.829-.233-3.041-.615-4.85-1.53-12.184-5.618-20.523-5.618S34.35 81.34 29.5 82.868c-1.213.382-2.256.6-3.041.615s-1.264-.134-1.666-.45c-.805-.63-1.655-2.6-1.655-7.05 0-17.8 12.162-31.973 26.883-31.973z" color="#000" solid-color="#000000" style="font-feature-settings:normal;font-variant-alternates:normal;font-variant-caps:normal;font-variant-ligatures:normal;font-variant-numeric:normal;font-variant-position:normal;isolation:auto;mix-blend-mode:normal;shape-padding:0;text-decoration-color:#000;text-decoration-line:none;text-decoration-style:solid;text-indent:0;text-orientation:mixed;text-transform:none" white-space="normal"></path></g><!----></svg>